<svg xmlns="http://www.w3.org/2000/svg" viewBox="0 0 24 24" fill="none">
  <!-- Blue background -->
  <rect width="24" height="24" rx="6" fill="#1a6aff"/>
  <!-- Bot head (outline, white) -->
  <rect x="4" y="2" width="12" height="12" rx="3" stroke="white" stroke-width="1.5" fill="none"/>
  <!-- Antennae -->
  <path stroke="white" stroke-width="1.5" stroke-linecap="round" d="M7 2V0.5M13 2V0.5"/>
  <!-- Eyes -->
  <circle cx="8" cy="7" r="1.25" fill="white"/>
  <circle cx="12" cy="7" r="1.25" fill="white"/>
  <!-- Mouth -->
  <path d="M8 10.5h4" stroke="white" stroke-width="1" stroke-linecap="round"/>
  <!-- Speech bubble -->
  <path fill-rule="evenodd" clip-rule="evenodd" d="M15 6h4a2 2 0 0 1 2 2v5a2 2 0 0 1-2 2h-1.5l-1.5 2-1.5-2H15a2 2 0 0 1-2-2V8a2 2 0 0 1 2-2Z" fill="white"/>
</svg>
